<svg xmlns="http://www.w3.org/2000/svg" xmlns:xlink="http://www.w3.org/1999/xlink" version="1.1" enable-background="new 0 0 87.506 100" xml:space="preserve" width="140" height="140"><rect id="backgroundrect" width="100%" height="100%" x="0" y="0" fill="none" stroke="none" class=""/>
<g class="currentLayer"><title>Layer 1</title><path fill="white" d="M69.14285948872566,45.000001430511475 c-1.6560000000000001,0 -3,1.343 -3,3 v28 c0,1.657 1.344,3 3,3 s3,-1.343 3,-3 V48.000001430511475 C72.14285948872566,46.34300143051148 70.79885948872567,45.000001430511475 69.14285948872566,45.000001430511475 z" id="svg_1" class=""/><path fill="white" d="M113.75300117111206,43.807000774860384 c0,0 -1.4140000000000001,-4.242 -4.243,-7.07 c-2.8280000000000003,-2.829 -7.07,-4.243 -7.07,-4.243 l-8.988,8.988 C88.65500117111206,38.20200077486038 83.16300117111206,35.87600077486038 77.24700117111206,34.758000774860385 V22.000000774860382 c0,0 -4,-2 -8,-2 s-8,2 -8,2 v12.758000000000001 C41.349001171112064,38.52000077486038 26.24700117111206,56.02400077486038 26.24700117111206,77.00000077486038 c0,23.71 19.29,43 43,43 s43,-19.29 43,-43 c0,-8.971 -2.765,-17.305 -7.482,-24.205 L113.75300117111206,43.807000774860384 zM69.24700117111206,114.00000077486038 C48.84500117111206,114.00000077486038 32.24700117111206,97.40200077486038 32.24700117111206,77.00000077486038 s16.598,-37 37,-37 s37,16.598 37,37 S89.64900117111206,114.00000077486038 69.24700117111206,114.00000077486038 z" id="svg_2" class=""/></g></svg>